<svg width="51" height="9" viewBox="0 0 51 9" fill="none" xmlns="http://www.w3.org/2000/svg">
<path d="M7.76953 9H5.72461L2.70117 3.69141V9H0.644531V0.46875H2.70117L5.71875 5.77734V0.46875H7.76953V9ZM14.3613 5.38477H11.127V7.41797H14.9473V9H9.07031V0.46875H14.959V2.05664H11.127V3.85547H14.3613V5.38477ZM22.5996 2.05664H20.0391V9H17.9824V2.05664H15.4688V0.46875H22.5996V2.05664ZM28.8457 5.60156H25.5293V9H23.4727V0.46875H29.1797V2.05664H25.5293V4.01953H28.8457V5.60156ZM32.0918 7.41797H35.6719V9H30.0352V0.46875H32.0918V7.41797ZM41.8301 5.38477H38.5957V7.41797H42.416V9H36.5391V0.46875H42.4277V2.05664H38.5957V3.85547H41.8301V5.38477ZM46.4355 3.30469L47.8301 0.46875H50.1797L47.7949 4.69922L50.2441 9H47.8711L46.4355 6.11133L45 9H42.6328L45.0762 4.69922L42.6973 0.46875H45.041L46.4355 3.30469Z" fill="#E50914"/>
</svg>
